<?xml version="1.0" standalone="no"?>
<!DOCTYPE svg PUBLIC "-//W3C//DTD SVG 20010904//EN"
 "http://www.w3.org/TR/2001/REC-SVG-20010904/DTD/svg10.dtd">
<svg version="1.0" xmlns="http://www.w3.org/2000/svg"
 width="1024.000000pt" height="1024.000000pt" viewBox="0 0 1024.000000 1024.000000"
 preserveAspectRatio="xMidYMid meet">

<g transform="translate(0.000000,1024.000000) scale(0.100000,-0.100000)"
fill="#000000" stroke="none">
<path d="M7215 10048 c-16 -6 -38 -18 -49 -27 -32 -28 -137 -172 -153 -209 -8
-20 -28 -55 -43 -77 -15 -22 -55 -94 -90 -160 -34 -66 -72 -133 -84 -150 -12
-16 -30 -52 -41 -80 -10 -27 -26 -62 -37 -77 -26 -37 -115 -220 -140 -287 -12
-31 -27 -65 -35 -77 -7 -11 -24 -52 -37 -92 -13 -39 -36 -90 -49 -114 -14 -24
-55 -108 -92 -188 -36 -80 -81 -176 -100 -215 -18 -38 -36 -81 -40 -95 -4 -14
-20 -50 -35 -80 -15 -30 -35 -78 -43 -106 -8 -28 -24 -69 -36 -92 -12 -23 -36
-83 -55 -134 -18 -51 -41 -109 -49 -128 -9 -19 -46 -116 -83 -215 -37 -99 -73
-189 -80 -200 -7 -11 -31 -70 -52 -130 -22 -61 -48 -132 -60 -160 -64 -155
-102 -269 -115 -342 -16 -92 -33 -125 -80 -150 -28 -15 -70 -18 -342 -20 -209
-1 -347 -7 -425 -17 -187 -25 -253 -19 -284 28 -8 13 -31 65 -51 117 -20 52
-49 126 -65 164 -15 39 -44 111 -64 160 -20 50 -47 110 -60 135 -13 25 -31 69
-40 98 -8 29 -31 83 -50 120 -44 82 -163 323 -188 377 -19 40 -47 96 -93 183
-37 70 -165 340 -165 348 0 4 -24 48 -54 98 -29 50 -80 138 -112 196 -32 58
-83 148 -113 200 -30 52 -74 130 -97 173 -24 44 -49 86 -56 94 -7 8 -26 41
-43 74 -39 75 -160 264 -197 307 -15 18 -41 59 -57 90 -36 69 -162 210 -270
301 -43 36 -107 91 -142 122 -71 63 -223 149 -261 149 -36 0 -88 -20 -125 -48
-36 -27 -134 -184 -153 -247 -7 -22 -27 -69 -45 -105 -18 -36 -38 -90 -44
-119 -6 -30 -29 -111 -51 -180 -22 -70 -46 -160 -55 -201 -9 -41 -25 -99 -36
-129 -11 -30 -27 -104 -35 -164 -9 -62 -29 -145 -45 -190 -26 -69 -32 -107
-45 -271 -8 -105 -23 -227 -33 -271 -43 -177 -46 -238 -45 -800 l0 -540 33
-155 c22 -109 36 -214 46 -355 12 -158 22 -232 50 -350 19 -82 42 -192 50
-242 8 -51 22 -112 31 -135 16 -46 23 -71 56 -213 32 -138 95 -318 134 -382
35 -56 36 -60 31 -138 -3 -44 -13 -100 -22 -125 -83 -229 -118 -600 -90 -965
19 -259 20 -250 -13 -284 -37 -39 -178 -85 -322 -106 -63 -9 -171 -32 -240
-50 -69 -19 -150 -39 -180 -45 -30 -6 -95 -24 -145 -40 -49 -16 -129 -40 -177
-55 -140 -41 -204 -118 -145 -173 13 -12 36 -22 53 -22 28 0 274 83 322 109
12 7 64 19 115 27 51 8 130 25 177 38 47 14 136 31 198 40 62 9 153 30 203 47
147 51 222 42 253 -30 74 -174 37 -241 -164 -295 -36 -10 -79 -26 -96 -37 -17
-10 -62 -28 -100 -40 -38 -12 -91 -32 -117 -46 -26 -13 -80 -31 -120 -40 -40
-9 -102 -31 -138 -49 -36 -18 -91 -39 -123 -47 -31 -9 -71 -26 -89 -40 -18
-13 -57 -32 -87 -42 -30 -9 -75 -30 -100 -45 -25 -16 -74 -36 -109 -46 -51
-14 -75 -28 -113 -64 -26 -25 -48 -52 -48 -59 0 -6 11 -23 25 -36 42 -43 153
-25 236 37 19 14 58 33 88 43 29 10 74 30 100 46 25 15 76 35 114 43 37 9 86
26 110 37 23 12 78 34 122 49 44 15 103 37 130 48 118 50 220 86 365 129 194
57 192 57 235 49 30 -6 42 -17 79 -74 73 -114 71 -103 27 -162 -21 -29 -56
-63 -77 -77 -22 -14 -44 -31 -50 -39 -5 -7 -32 -28 -60 -46 -91 -62 -147 -103
-195 -143 -49 -41 -132 -103 -184 -136 -28 -18 -64 -45 -207 -155 -29 -23 -70
-58 -92 -78 -79 -76 -60 -184 29 -162 15 4 57 35 94 69 70 65 122 105 280 214
30 21 71 53 91 70 21 18 54 40 73 48 20 8 51 30 69 48 18 18 53 44 78 59 25
14 65 44 90 65 108 95 138 113 191 113 41 0 54 -5 74 -26 14 -15 25 -31 25
-36 0 -5 17 -27 38 -51 21 -23 46 -53 55 -66 33 -50 212 -234 263 -272 29 -21
61 -47 71 -57 10 -11 39 -33 64 -50 25 -16 52 -38 60 -48 55 -67 506 -340 609
-369 14 -4 57 -22 95 -41 101 -49 300 -120 407 -145 51 -12 117 -30 146 -40
52 -18 101 -25 317 -49 55 -6 159 -22 230 -35 234 -43 409 -42 650 5 55 11
168 27 250 36 83 9 173 23 200 30 28 8 102 28 166 44 250 64 608 215 791 334
294 192 343 229 498 368 95 85 204 197 265 273 54 65 152 208 159 232 6 18 96
83 116 83 22 0 126 -59 150 -85 14 -15 41 -38 60 -50 19 -12 89 -74 156 -136
136 -128 281 -251 419 -354 37 -27 94 -74 127 -103 52 -45 66 -52 102 -52 50
0 86 28 86 65 0 30 -53 91 -128 149 -106 82 -168 127 -222 163 -53 34 -139
108 -246 209 -73 70 -121 112 -184 160 -30 23 -94 80 -142 126 -104 98 -105
104 -52 225 28 63 44 85 69 99 40 21 68 13 152 -44 32 -22 83 -52 113 -67 30
-15 66 -35 80 -45 14 -9 45 -28 70 -42 25 -14 68 -39 95 -55 131 -78 174 -102
219 -122 28 -12 65 -33 83 -47 18 -14 55 -33 81 -41 26 -9 67 -31 92 -48 25
-18 62 -38 82 -44 21 -7 57 -28 80 -47 42 -36 94 -66 136 -79 33 -10 72 28 72
70 0 26 -10 42 -50 79 -27 25 -62 52 -77 58 -15 7 -56 30 -90 53 -106 69 -176
109 -230 132 -29 11 -67 33 -85 46 -18 14 -57 35 -86 46 -29 12 -94 47 -145
80 -51 32 -117 71 -147 86 -30 15 -100 58 -155 95 -55 37 -119 77 -142 89 -54
27 -66 51 -61 118 4 40 12 62 35 91 l31 37 103 -1 c77 -1 131 -9 207 -28 64
-17 166 -32 267 -41 128 -11 183 -21 254 -45 97 -32 248 -54 301 -44 45 9 62
40 49 87 -15 54 -51 73 -173 87 -55 7 -148 23 -205 37 -57 13 -163 31 -235 39
-72 8 -194 25 -271 38 -77 14 -165 28 -195 32 -81 10 -98 19 -108 57 -9 33 3
165 27 302 5 27 8 52 6 55 -2 3 -8 59 -15 125 -9 106 -21 189 -60 424 -6 35
-20 82 -31 103 -11 22 -29 80 -40 129 -12 54 -30 106 -48 134 -17 27 -39 86
-52 140 -22 93 -22 95 -6 207 9 62 21 147 26 188 6 41 22 111 36 155 16 49 30
122 35 190 12 137 12 1458 0 1810 -6 193 -13 287 -29 365 -35 182 -41 230 -51
412 -9 155 -14 189 -40 270 -21 63 -35 138 -45 233 -17 155 -17 155 -50 240
-13 33 -30 107 -39 165 -9 63 -26 130 -42 165 -14 33 -37 105 -49 160 -24 105
-80 246 -118 298 -12 17 -35 55 -52 84 -47 82 -157 197 -217 227 -56 28 -136
34 -193 14z m-4896 -472 c22 -28 55 -78 75 -111 32 -55 51 -90 148 -275 18
-36 45 -83 60 -105 15 -22 34 -59 42 -83 8 -23 27 -58 41 -77 15 -19 33 -60
42 -92 8 -32 26 -76 40 -97 14 -21 40 -82 58 -135 36 -108 94 -258 130 -341
13 -30 31 -86 39 -123 9 -38 21 -78 28 -90 31 -56 171 -553 212 -752 20 -93
43 -195 51 -225 31 -113 45 -180 75 -365 34 -213 54 -268 108 -296 43 -22 72
-49 72 -65 0 -17 -119 -100 -187 -130 -32 -14 -71 -38 -89 -52 -38 -33 -197
-160 -233 -187 -149 -111 -452 -406 -556 -540 -30 -38 -75 -95 -100 -125 -48
-59 -136 -189 -175 -257 -26 -47 -28 -48 -63 -32 -32 15 -91 139 -113 239 -18
81 -44 172 -67 235 -9 23 -20 86 -26 140 -6 55 -27 154 -46 220 -27 97 -36
150 -44 278 -6 86 -20 201 -31 255 -42 211 -50 345 -50 864 0 558 9 726 46
878 14 58 30 159 35 225 7 79 20 151 39 210 34 107 36 117 54 260 9 72 25 137
45 187 16 41 37 104 46 139 9 35 27 89 40 119 14 30 31 85 39 122 17 73 68
191 97 224 31 34 71 21 118 -40z m5270 -121 c21 -10 31 -27 41 -62 7 -26 26
-79 42 -117 17 -38 38 -114 48 -170 10 -56 29 -129 43 -162 18 -42 30 -96 38
-175 7 -74 24 -153 46 -224 32 -101 35 -125 43 -300 8 -165 13 -204 40 -300
44 -155 50 -312 51 -1415 1 -914 -2 -1015 -34 -1106 -8 -22 -20 -65 -26 -95
-15 -70 -42 -115 -74 -121 -28 -5 -58 25 -162 162 -75 98 -327 343 -440 426
-55 41 -116 87 -135 102 -69 54 -189 122 -375 214 -33 17 -80 43 -105 58 -25
16 -67 34 -95 41 -70 17 -85 26 -85 54 0 19 7 26 28 31 87 19 117 31 134 54
19 26 48 170 48 238 0 18 16 81 36 140 27 81 39 139 50 242 14 141 71 401 130
595 18 61 38 137 45 170 6 33 24 91 41 129 16 37 36 93 44 124 8 31 23 70 34
87 10 17 33 81 50 144 17 62 37 126 46 142 8 16 24 67 35 112 11 45 31 109 44
142 13 33 38 109 55 169 17 60 38 123 46 140 7 17 39 96 69 176 31 80 67 172
81 205 25 57 84 165 92 165 1 0 16 -7 31 -15z m-824 -4429 c118 -18 195 -41
242 -73 21 -14 62 -36 90 -48 73 -29 241 -181 289 -260 138 -227 185 -403 170
-645 -16 -250 -106 -442 -296 -631 -81 -80 -135 -118 -242 -169 -141 -67 -357
-110 -462 -92 -176 31 -299 62 -345 89 -167 96 -209 123 -254 163 -53 48 -113
122 -161 198 -17 26 -42 66 -57 89 -33 52 -100 318 -106 418 -4 60 2 92 41
228 25 88 59 184 77 215 105 186 226 325 329 377 30 15 80 42 110 61 60 37
130 57 266 78 117 18 199 19 309 2z m-3027 -81 c29 -13 82 -30 117 -36 48 -8
83 -23 147 -64 213 -137 311 -242 411 -441 57 -113 77 -202 83 -374 8 -188
-15 -306 -88 -445 -52 -101 -108 -184 -147 -219 -12 -11 -31 -35 -42 -53 -24
-39 -146 -126 -246 -177 -142 -71 -351 -114 -498 -102 -177 14 -376 86 -514
186 -72 53 -241 230 -241 253 0 7 -13 31 -29 53 -33 46 -69 141 -105 275 -21
76 -26 120 -26 208 0 104 3 119 45 247 52 158 106 256 202 366 131 149 260
237 428 295 151 51 150 51 305 52 134 1 149 -1 198 -24z m1517 -1549 c15 -10
47 -38 71 -62 39 -38 43 -47 38 -76 -10 -58 -50 -84 -150 -98 -213 -30 -428
40 -410 134 7 38 63 90 120 110 62 23 292 18 331 -8z m718 -743 c18 -9 37 -23
44 -32 14 -19 16 -214 6 -606 l-6 -258 -30 -34 c-38 -43 -66 -57 -147 -72 -36
-7 -98 -21 -137 -32 -72 -20 -353 -59 -425 -59 -25 0 -46 8 -67 26 l-31 26 0
447 c0 512 3 541 65 567 31 12 141 27 275 37 25 2 130 4 233 5 158 2 193 -1
220 -15z m502 7 c39 -5 136 -14 217 -20 184 -14 198 -18 222 -60 17 -28 20
-57 23 -216 2 -132 0 -192 -9 -213 -13 -30 -130 -141 -149 -141 -6 0 -40 -18
-77 -40 -36 -22 -83 -45 -103 -50 -20 -6 -54 -22 -75 -37 -43 -29 -168 -81
-227 -93 -33 -6 -41 -4 -67 20 -16 15 -31 38 -35 51 -3 13 -2 188 2 387 l8
364 30 24 c16 13 38 25 50 27 37 8 119 6 190 -3z m-1512 -39 c45 -17 47 -44
47 -540 0 -521 3 -501 -69 -521 -27 -7 -69 -7 -133 0 -51 5 -149 14 -218 20
-80 6 -158 19 -215 36 -50 14 -118 30 -153 35 -103 15 -144 46 -162 123 -9 39
5 653 16 704 13 61 54 81 211 102 76 10 212 24 303 30 91 6 174 13 185 14 49
7 166 5 188 -3z m2292 -21 c46 -10 75 -41 75 -77 0 -33 -99 -145 -147 -168
-35 -17 -37 -17 -49 0 -20 27 -37 122 -29 162 15 83 55 105 150 83z m-3381
-81 c31 -14 58 -69 59 -118 0 -20 -3 -155 -7 -300 -8 -309 -11 -321 -83 -321
-33 0 -76 16 -188 71 -169 85 -205 111 -239 182 -26 52 -26 54 -20 216 7 161
7 163 35 191 23 22 44 30 101 39 40 7 107 20 148 30 88 22 159 26 194 10z
m-689 -115 c20 -8 34 -42 45 -109 13 -80 -27 -107 -96 -65 -29 19 -74 89 -74
117 0 6 9 22 21 37 21 26 65 35 104 20z"/>
<path d="M6541 4394 c-136 -36 -169 -106 -87 -186 43 -42 56 -69 56 -111 0
-43 -20 -61 -89 -81 -67 -20 -101 -49 -101 -88 0 -70 68 -134 178 -168 88 -27
138 -27 218 1 54 19 80 35 123 78 63 64 86 110 101 206 19 116 -5 182 -99 276
-84 84 -176 107 -300 73z"/>
<path d="M3455 4311 c-70 -25 -93 -41 -104 -73 -14 -39 -3 -68 41 -114 48 -50
64 -104 42 -146 -11 -22 -29 -32 -84 -49 -57 -17 -73 -27 -86 -50 -28 -56 11
-127 98 -174 44 -24 66 -29 147 -33 134 -6 167 5 251 85 59 55 73 74 86 121
21 70 21 184 0 253 -25 88 -69 130 -173 167 -100 36 -147 39 -218 13z"/>
<path d="M5906 31 c-26 -11 -51 -22 -54 -25 -3 -4 62 -6 144 -6 l148 0 -22 22
c-31 32 -146 36 -216 9z"/>
</g>
</svg>
