<?xml version="1.0" encoding="UTF-8"?>
<svg xmlns="http://www.w3.org/2000/svg" xmlns:xlink="http://www.w3.org/1999/xlink" width="150px" height="150px" viewBox="0 0 150 150" version="1.1">
<g id="surface1">
<path style=" stroke:none;fill-rule:nonzero;fill:rgb(0%,0%,0%);fill-opacity:1;" d="M 105.6875 2.8125 C 105.453125 2.898438 105.132812 3.078125 104.96875 3.207031 C 104.5 3.617188 102.964844 5.726562 102.730469 6.269531 C 102.613281 6.5625 102.320312 7.074219 102.101562 7.398438 C 101.878906 7.71875 101.292969 8.773438 100.78125 9.742188 C 100.28125 10.707031 99.726562 11.6875 99.550781 11.9375 C 99.375 12.171875 99.109375 12.699219 98.949219 13.109375 C 98.804688 13.507812 98.570312 14.019531 98.40625 14.238281 C 98.027344 14.78125 96.722656 17.460938 96.359375 18.441406 C 96.179688 18.898438 95.960938 19.394531 95.84375 19.570312 C 95.742188 19.730469 95.492188 20.332031 95.304688 20.917969 C 95.113281 21.488281 94.773438 22.234375 94.585938 22.585938 C 94.378906 22.9375 93.78125 24.171875 93.238281 25.34375 C 92.710938 26.515625 92.050781 27.921875 91.773438 28.492188 C 91.507812 29.046875 91.246094 29.679688 91.1875 29.882812 C 91.128906 30.085938 90.894531 30.617188 90.671875 31.054688 C 90.453125 31.492188 90.160156 32.195312 90.042969 32.609375 C 89.925781 33.015625 89.691406 33.617188 89.515625 33.953125 C 89.339844 34.292969 88.988281 35.171875 88.710938 35.917969 C 88.445312 36.664062 88.109375 37.515625 87.992188 37.792969 C 87.859375 38.070312 87.320312 39.492188 86.777344 40.941406 C 86.234375 42.390625 85.707031 43.710938 85.605469 43.871094 C 85.503906 44.03125 85.152344 44.898438 84.84375 45.777344 C 84.523438 46.671875 84.140625 47.710938 83.964844 48.121094 C 83.027344 50.390625 82.46875 52.0625 82.28125 53.128906 C 82.046875 54.476562 81.796875 54.960938 81.109375 55.328125 C 80.699219 55.546875 80.082031 55.589844 76.097656 55.621094 C 73.039062 55.632812 71.015625 55.722656 69.875 55.867188 C 67.132812 56.234375 66.167969 56.148438 65.710938 55.460938 C 65.59375 55.269531 65.257812 54.507812 64.964844 53.746094 C 64.671875 52.984375 64.25 51.898438 64.015625 51.34375 C 63.792969 50.773438 63.367188 49.71875 63.078125 49 C 62.78125 48.265625 62.386719 47.386719 62.195312 47.023438 C 62.007812 46.65625 61.742188 46.011719 61.609375 45.585938 C 61.492188 45.160156 61.15625 44.371094 60.878906 43.828125 C 60.234375 42.625 58.492188 39.097656 58.125 38.304688 C 57.847656 37.71875 57.4375 36.898438 56.761719 35.625 C 56.21875 34.601562 54.34375 30.644531 54.34375 30.527344 C 54.34375 30.46875 53.992188 29.824219 53.554688 29.09375 C 53.128906 28.359375 52.382812 27.070312 51.914062 26.21875 C 51.445312 25.371094 50.699219 24.054688 50.257812 23.289062 C 49.820312 22.53125 49.175781 21.386719 48.835938 20.757812 C 48.484375 20.113281 48.121094 19.496094 48.015625 19.378906 C 47.914062 19.261719 47.636719 18.78125 47.386719 18.296875 C 46.816406 17.195312 45.042969 14.429688 44.5 13.796875 C 44.28125 13.535156 43.902344 12.933594 43.667969 12.480469 C 43.140625 11.46875 41.292969 9.40625 39.710938 8.070312 C 39.082031 7.542969 38.144531 6.738281 37.632812 6.285156 C 36.59375 5.359375 34.367188 4.101562 33.808594 4.101562 C 33.28125 4.101562 32.519531 4.394531 31.976562 4.804688 C 31.449219 5.199219 30.015625 7.5 29.734375 8.421875 C 29.632812 8.746094 29.339844 9.433594 29.078125 9.960938 C 28.8125 10.488281 28.519531 11.28125 28.433594 11.703125 C 28.34375 12.144531 28.007812 13.328125 27.6875 14.339844 C 27.363281 15.367188 27.011719 16.683594 26.878906 17.285156 C 26.75 17.886719 26.515625 18.734375 26.351562 19.175781 C 26.191406 19.613281 25.957031 20.699219 25.839844 21.578125 C 25.707031 22.484375 25.414062 23.703125 25.179688 24.359375 C 24.800781 25.371094 24.710938 25.929688 24.523438 28.328125 C 24.40625 29.867188 24.183594 31.65625 24.039062 32.300781 C 23.40625 34.890625 23.363281 35.785156 23.378906 44.019531 L 23.378906 51.929688 L 23.863281 54.199219 C 24.183594 55.796875 24.390625 57.335938 24.535156 59.398438 C 24.710938 61.714844 24.859375 62.796875 25.269531 64.527344 C 25.546875 65.726562 25.882812 67.339844 26 68.070312 C 26.117188 68.820312 26.324219 69.710938 26.453125 70.046875 C 26.6875 70.722656 26.792969 71.089844 27.273438 73.167969 C 27.742188 75.191406 28.667969 77.828125 29.238281 78.765625 C 29.75 79.585938 29.765625 79.644531 29.691406 80.785156 C 29.648438 81.429688 29.5 82.25 29.371094 82.617188 C 28.15625 85.972656 27.640625 91.40625 28.050781 96.753906 C 28.328125 100.546875 28.34375 100.414062 27.859375 100.914062 C 27.320312 101.484375 25.253906 102.15625 23.144531 102.464844 C 22.222656 102.597656 20.640625 102.933594 19.628906 103.199219 C 18.617188 103.476562 17.429688 103.769531 16.992188 103.859375 C 16.554688 103.945312 15.601562 104.210938 14.867188 104.445312 C 14.148438 104.679688 12.976562 105.03125 12.273438 105.25 C 10.226562 105.851562 9.289062 106.976562 10.152344 107.78125 C 10.34375 107.960938 10.679688 108.105469 10.929688 108.105469 C 11.335938 108.105469 14.941406 106.890625 15.644531 106.507812 C 15.820312 106.40625 16.582031 106.230469 17.328125 106.113281 C 18.078125 105.996094 19.234375 105.746094 19.921875 105.554688 C 20.609375 105.351562 21.914062 105.101562 22.820312 104.96875 C 23.730469 104.839844 25.0625 104.53125 25.796875 104.28125 C 27.949219 103.535156 29.046875 103.667969 29.5 104.722656 C 30.585938 107.269531 30.042969 108.25 27.101562 109.042969 C 26.570312 109.1875 25.941406 109.421875 25.695312 109.585938 C 25.445312 109.730469 24.785156 109.996094 24.226562 110.171875 C 23.671875 110.347656 22.894531 110.640625 22.515625 110.84375 C 22.132812 111.035156 21.34375 111.296875 20.757812 111.429688 C 20.171875 111.5625 19.261719 111.882812 18.734375 112.148438 C 18.207031 112.414062 17.402344 112.71875 16.933594 112.835938 C 16.480469 112.96875 15.894531 113.21875 15.628906 113.421875 C 15.367188 113.613281 14.796875 113.890625 14.355469 114.039062 C 13.914062 114.171875 13.257812 114.476562 12.890625 114.695312 C 12.523438 114.929688 11.804688 115.226562 11.292969 115.371094 C 10.546875 115.578125 10.195312 115.78125 9.640625 116.308594 C 9.257812 116.675781 8.9375 117.070312 8.9375 117.171875 C 8.9375 117.261719 9.097656 117.507812 9.300781 117.699219 C 9.917969 118.328125 11.542969 118.066406 12.757812 117.15625 C 13.039062 116.953125 13.609375 116.675781 14.046875 116.527344 C 14.472656 116.382812 15.132812 116.089844 15.511719 115.855469 C 15.878906 115.632812 16.625 115.34375 17.183594 115.226562 C 17.726562 115.09375 18.441406 114.84375 18.792969 114.683594 C 19.132812 114.507812 19.9375 114.183594 20.582031 113.964844 C 21.226562 113.746094 22.089844 113.421875 22.484375 113.261719 C 24.214844 112.53125 25.707031 112 27.832031 111.371094 C 30.671875 110.539062 30.644531 110.539062 31.273438 110.65625 C 31.714844 110.742188 31.890625 110.902344 32.429688 111.738281 C 33.5 113.40625 33.472656 113.246094 32.828125 114.109375 C 32.519531 114.535156 32.007812 115.035156 31.699219 115.238281 C 31.375 115.445312 31.054688 115.695312 30.96875 115.8125 C 30.894531 115.914062 30.5 116.21875 30.085938 116.484375 C 28.753906 117.390625 27.933594 117.992188 27.230469 118.578125 C 26.515625 119.179688 25.296875 120.085938 24.535156 120.570312 C 24.125 120.835938 23.597656 121.230469 21.503906 122.84375 C 21.078125 123.179688 20.476562 123.691406 20.15625 123.984375 C 19 125.097656 19.277344 126.679688 20.582031 126.359375 C 20.800781 126.296875 21.414062 125.84375 21.957031 125.347656 C 22.984375 124.394531 23.746094 123.808594 26.058594 122.210938 C 26.5 121.90625 27.101562 121.4375 27.390625 121.1875 C 27.699219 120.921875 28.183594 120.601562 28.460938 120.484375 C 28.753906 120.367188 29.210938 120.042969 29.472656 119.78125 C 29.734375 119.515625 30.25 119.136719 30.617188 118.914062 C 30.980469 118.710938 31.566406 118.273438 31.933594 117.964844 C 33.515625 116.570312 33.953125 116.308594 34.730469 116.308594 C 35.332031 116.308594 35.523438 116.382812 35.816406 116.6875 C 36.019531 116.910156 36.179688 117.144531 36.179688 117.21875 C 36.179688 117.289062 36.429688 117.613281 36.738281 117.964844 C 37.046875 118.300781 37.414062 118.742188 37.542969 118.929688 C 38.027344 119.664062 40.648438 122.359375 41.398438 122.914062 C 41.820312 123.222656 42.289062 123.601562 42.4375 123.75 C 42.582031 123.910156 43.007812 124.234375 43.375 124.484375 C 43.742188 124.71875 44.136719 125.039062 44.253906 125.1875 C 45.058594 126.167969 51.664062 130.164062 53.171875 130.589844 C 53.378906 130.648438 54.007812 130.914062 54.566406 131.191406 C 56.046875 131.910156 58.960938 132.949219 60.527344 133.316406 C 61.273438 133.492188 62.242188 133.753906 62.664062 133.902344 C 63.429688 134.164062 64.144531 134.265625 67.308594 134.617188 C 68.117188 134.707031 69.640625 134.941406 70.679688 135.132812 C 74.105469 135.761719 76.671875 135.746094 80.199219 135.058594 C 81.007812 134.898438 82.660156 134.664062 83.863281 134.53125 C 85.078125 134.398438 86.398438 134.195312 86.792969 134.09375 C 87.203125 133.976562 88.285156 133.679688 89.222656 133.445312 C 92.886719 132.507812 98.128906 130.296875 100.8125 128.554688 C 105.117188 125.742188 105.835938 125.199219 108.105469 123.164062 C 109.496094 121.917969 111.09375 120.277344 111.988281 119.164062 C 112.777344 118.210938 114.214844 116.117188 114.316406 115.765625 C 114.40625 115.503906 115.722656 114.550781 116.015625 114.550781 C 116.335938 114.550781 117.859375 115.414062 118.210938 115.796875 C 118.417969 116.015625 118.8125 116.351562 119.09375 116.527344 C 119.371094 116.703125 120.394531 117.613281 121.375 118.519531 C 123.367188 120.394531 125.492188 122.195312 127.515625 123.707031 C 128.054688 124.101562 128.890625 124.789062 129.375 125.214844 C 130.136719 125.875 130.34375 125.976562 130.867188 125.976562 C 131.601562 125.976562 132.128906 125.566406 132.128906 125.023438 C 132.128906 124.585938 131.351562 123.691406 130.253906 122.84375 C 128.703125 121.640625 127.792969 120.980469 127 120.453125 C 126.226562 119.957031 124.964844 118.871094 123.398438 117.390625 C 122.328125 116.367188 121.625 115.75 120.703125 115.046875 C 120.265625 114.710938 119.328125 113.875 118.625 113.203125 C 117.101562 111.765625 117.085938 111.679688 117.859375 109.90625 C 118.273438 108.984375 118.507812 108.664062 118.871094 108.457031 C 119.457031 108.148438 119.867188 108.265625 121.097656 109.101562 C 121.566406 109.421875 122.3125 109.863281 122.753906 110.082031 C 123.195312 110.304688 123.71875 110.59375 123.925781 110.742188 C 124.132812 110.875 124.585938 111.152344 124.953125 111.359375 C 125.316406 111.5625 125.945312 111.929688 126.34375 112.164062 C 128.261719 113.304688 128.890625 113.65625 129.550781 113.949219 C 129.960938 114.125 130.503906 114.433594 130.765625 114.640625 C 131.03125 114.84375 131.570312 115.121094 131.953125 115.238281 C 132.335938 115.371094 132.933594 115.695312 133.300781 115.941406 C 133.667969 116.207031 134.210938 116.5 134.5 116.585938 C 134.808594 116.6875 135.335938 116.996094 135.671875 117.273438 C 136.289062 117.804688 137.050781 118.242188 137.664062 118.433594 C 138.148438 118.578125 138.71875 118.023438 138.71875 117.40625 C 138.71875 117.027344 138.574219 116.792969 137.988281 116.25 C 137.59375 115.882812 137.078125 115.488281 136.859375 115.398438 C 136.640625 115.296875 136.039062 114.960938 135.542969 114.625 C 133.988281 113.613281 132.964844 113.027344 132.171875 112.691406 C 131.75 112.53125 131.191406 112.207031 130.929688 112.015625 C 130.664062 111.8125 130.09375 111.503906 129.667969 111.34375 C 129.242188 111.167969 128.289062 110.65625 127.542969 110.171875 C 126.796875 109.703125 125.828125 109.132812 125.390625 108.910156 C 124.953125 108.691406 123.925781 108.0625 123.121094 107.519531 C 122.3125 106.976562 121.375 106.390625 121.039062 106.214844 C 120.25 105.820312 120.074219 105.46875 120.148438 104.488281 C 120.203125 103.902344 120.320312 103.578125 120.660156 103.15625 L 121.113281 102.613281 L 122.621094 102.625 C 123.75 102.640625 124.539062 102.757812 125.65625 103.039062 C 126.59375 103.285156 128.085938 103.507812 129.566406 103.636719 C 131.441406 103.796875 132.246094 103.945312 133.285156 104.296875 C 134.707031 104.765625 136.917969 105.085938 137.695312 104.941406 C 138.355469 104.808594 138.601562 104.355469 138.414062 103.667969 C 138.195312 102.875 137.664062 102.597656 135.878906 102.390625 C 135.074219 102.289062 133.710938 102.054688 132.875 101.851562 C 132.039062 101.660156 130.488281 101.398438 129.433594 101.28125 C 128.378906 101.164062 126.59375 100.914062 125.464844 100.722656 C 124.335938 100.515625 123.046875 100.3125 122.609375 100.253906 C 121.421875 100.109375 121.171875 99.976562 121.023438 99.417969 C 120.894531 98.9375 121.070312 97 121.421875 94.996094 C 121.492188 94.601562 121.539062 94.234375 121.507812 94.1875 C 121.480469 94.144531 121.390625 93.324219 121.289062 92.359375 C 121.15625 90.804688 120.980469 89.589844 120.410156 86.148438 C 120.320312 85.632812 120.117188 84.945312 119.957031 84.640625 C 119.796875 84.316406 119.53125 83.46875 119.371094 82.75 C 119.195312 81.957031 118.929688 81.195312 118.667969 80.785156 C 118.417969 80.390625 118.09375 79.527344 117.90625 78.734375 C 117.582031 77.375 117.582031 77.34375 117.816406 75.703125 C 117.949219 74.796875 118.125 73.550781 118.199219 72.949219 C 118.285156 72.347656 118.519531 71.324219 118.726562 70.679688 C 118.960938 69.960938 119.164062 68.890625 119.238281 67.894531 C 119.414062 65.890625 119.414062 46.539062 119.238281 41.382812 C 119.148438 38.554688 119.046875 37.179688 118.8125 36.035156 C 118.300781 33.367188 118.210938 32.664062 118.066406 30 C 117.933594 27.730469 117.859375 27.230469 117.480469 26.046875 C 117.171875 25.121094 116.96875 24.023438 116.820312 22.632812 C 116.570312 20.359375 116.570312 20.359375 116.089844 19.117188 C 115.898438 18.632812 115.648438 17.546875 115.515625 16.699219 C 115.386719 15.777344 115.136719 14.796875 114.902344 14.28125 C 114.695312 13.796875 114.359375 12.742188 114.183594 11.9375 C 113.832031 10.398438 113.011719 8.335938 112.457031 7.574219 C 112.28125 7.324219 111.945312 6.765625 111.695312 6.34375 C 111.007812 5.140625 109.394531 3.457031 108.515625 3.015625 C 107.695312 2.609375 106.523438 2.519531 105.6875 2.8125 Z M 33.96875 9.726562 C 34.292969 10.136719 34.773438 10.867188 35.070312 11.351562 C 35.539062 12.15625 35.816406 12.671875 37.234375 15.382812 C 37.5 15.90625 37.894531 16.597656 38.117188 16.917969 C 38.335938 17.242188 38.613281 17.78125 38.730469 18.132812 C 38.847656 18.472656 39.125 18.984375 39.332031 19.261719 C 39.550781 19.539062 39.8125 20.140625 39.945312 20.609375 C 40.0625 21.078125 40.328125 21.722656 40.53125 22.03125 C 40.738281 22.339844 41.117188 23.234375 41.382812 24.007812 C 41.910156 25.589844 42.757812 27.789062 43.285156 29.003906 C 43.476562 29.445312 43.742188 30.265625 43.859375 30.804688 C 43.988281 31.363281 44.164062 31.949219 44.265625 32.125 C 44.722656 32.945312 46.773438 40.226562 47.375 43.140625 C 47.664062 44.5 48.003906 45.996094 48.121094 46.4375 C 48.574219 48.089844 48.78125 49.070312 49.21875 51.78125 C 49.71875 54.902344 50.007812 55.707031 50.800781 56.117188 C 51.429688 56.441406 51.855469 56.835938 51.855469 57.070312 C 51.855469 57.320312 50.113281 58.535156 49.117188 58.976562 C 48.648438 59.179688 48.078125 59.53125 47.8125 59.734375 C 47.257812 60.21875 44.925781 62.078125 44.398438 62.476562 C 42.21875 64.101562 37.777344 68.421875 36.253906 70.386719 C 35.816406 70.941406 35.15625 71.777344 34.789062 72.21875 C 34.085938 73.082031 32.796875 74.984375 32.226562 75.980469 C 31.84375 76.671875 31.816406 76.683594 31.304688 76.449219 C 30.835938 76.230469 29.96875 74.414062 29.648438 72.949219 C 29.382812 71.761719 29.003906 70.429688 28.667969 69.507812 C 28.535156 69.171875 28.375 68.246094 28.285156 67.457031 C 28.199219 66.648438 27.890625 65.199219 27.613281 64.234375 C 27.21875 62.8125 27.085938 62.035156 26.96875 60.160156 C 26.878906 58.902344 26.675781 57.21875 26.515625 56.425781 C 25.898438 53.335938 25.78125 51.371094 25.78125 43.769531 C 25.78125 35.59375 25.914062 33.132812 26.453125 30.90625 C 26.660156 30.058594 26.894531 28.578125 26.96875 27.613281 C 27.070312 26.453125 27.261719 25.398438 27.539062 24.535156 C 28.039062 22.96875 28.066406 22.820312 28.328125 20.726562 C 28.460938 19.671875 28.695312 18.71875 28.988281 17.988281 C 29.222656 17.386719 29.53125 16.464844 29.664062 15.953125 C 29.796875 15.4375 30.058594 14.648438 30.25 14.210938 C 30.453125 13.769531 30.703125 12.964844 30.820312 12.421875 C 31.070312 11.351562 31.816406 9.625 32.242188 9.140625 C 32.695312 8.640625 33.28125 8.832031 33.96875 9.726562 Z M 111.167969 11.5 C 111.476562 11.644531 111.621094 11.894531 111.765625 12.40625 C 111.871094 12.789062 112.148438 13.5625 112.382812 14.121094 C 112.632812 14.679688 112.9375 15.789062 113.085938 16.609375 C 113.234375 17.429688 113.511719 18.5 113.714844 18.984375 C 113.980469 19.601562 114.15625 20.390625 114.273438 21.546875 C 114.375 22.632812 114.625 23.789062 114.945312 24.828125 C 115.414062 26.308594 115.460938 26.660156 115.578125 29.222656 C 115.695312 31.640625 115.765625 32.210938 116.164062 33.617188 C 116.804688 35.890625 116.894531 38.1875 116.910156 54.34375 C 116.921875 67.734375 116.878906 69.214844 116.410156 70.546875 C 116.292969 70.867188 116.117188 71.5 116.03125 71.9375 C 115.8125 72.964844 115.414062 73.625 114.945312 73.710938 C 114.535156 73.785156 114.097656 73.34375 112.574219 71.335938 C 111.476562 69.902344 107.78125 66.3125 106.128906 65.097656 C 105.320312 64.496094 104.429688 63.824219 104.148438 63.601562 C 103.140625 62.8125 101.382812 61.816406 98.65625 60.46875 C 98.171875 60.21875 97.484375 59.839844 97.117188 59.617188 C 96.753906 59.382812 96.136719 59.121094 95.726562 59.019531 C 94.703125 58.769531 94.484375 58.636719 94.484375 58.226562 C 94.484375 57.949219 94.585938 57.847656 94.890625 57.773438 C 96.167969 57.496094 96.605469 57.320312 96.855469 56.984375 C 97.132812 56.601562 97.558594 54.492188 97.558594 53.496094 C 97.558594 53.234375 97.792969 52.308594 98.085938 51.445312 C 98.480469 50.257812 98.65625 49.410156 98.820312 47.898438 C 99.023438 45.835938 99.859375 42.027344 100.722656 39.183594 C 100.984375 38.289062 101.28125 37.179688 101.382812 36.695312 C 101.46875 36.210938 101.734375 35.359375 101.984375 34.804688 C 102.21875 34.261719 102.507812 33.441406 102.625 32.988281 C 102.742188 32.535156 102.964844 31.960938 103.125 31.714844 C 103.273438 31.464844 103.609375 30.527344 103.859375 29.605469 C 104.105469 28.695312 104.398438 27.757812 104.53125 27.523438 C 104.648438 27.289062 104.882812 26.542969 105.042969 25.882812 C 105.203125 25.226562 105.5 24.289062 105.6875 23.804688 C 105.878906 23.320312 106.246094 22.207031 106.492188 21.328125 C 106.742188 20.449219 107.050781 19.527344 107.167969 19.277344 C 107.269531 19.027344 107.738281 17.871094 108.179688 16.699219 C 108.632812 15.527344 109.160156 14.179688 109.367188 13.695312 C 109.730469 12.859375 110.59375 11.28125 110.710938 11.28125 C 110.726562 11.28125 110.945312 11.382812 111.167969 11.5 Z M 99.097656 76.375 C 100.824219 76.640625 101.953125 76.976562 102.640625 77.445312 C 102.949219 77.652344 103.550781 77.972656 103.960938 78.148438 C 105.03125 78.574219 107.492188 80.800781 108.195312 81.957031 C 110.214844 85.28125 110.902344 87.859375 110.683594 91.40625 C 110.449219 95.070312 109.132812 97.882812 106.347656 100.648438 C 105.160156 101.820312 104.371094 102.378906 102.804688 103.125 C 100.738281 104.105469 97.574219 104.734375 96.035156 104.472656 C 93.457031 104.019531 91.65625 103.5625 90.980469 103.167969 C 88.535156 101.761719 87.921875 101.367188 87.261719 100.78125 C 86.484375 100.078125 85.605469 98.992188 84.902344 97.882812 C 84.652344 97.5 84.289062 96.914062 84.066406 96.578125 C 83.585938 95.816406 82.601562 91.917969 82.515625 90.453125 C 82.457031 89.574219 82.542969 89.105469 83.117188 87.113281 C 83.480469 85.824219 83.980469 84.417969 84.242188 83.964844 C 85.78125 81.242188 87.554688 79.203125 89.0625 78.441406 C 89.5 78.222656 90.234375 77.828125 90.671875 77.546875 C 91.554688 77.007812 92.578125 76.714844 94.570312 76.40625 C 96.285156 76.140625 97.484375 76.128906 99.097656 76.375 Z M 54.757812 77.5625 C 55.179688 77.753906 55.957031 78.003906 56.46875 78.089844 C 57.171875 78.207031 57.6875 78.429688 58.625 79.027344 C 61.742188 81.035156 63.179688 82.574219 64.644531 85.488281 C 65.476562 87.144531 65.773438 88.445312 65.859375 90.96875 C 65.976562 93.71875 65.640625 95.449219 64.570312 97.484375 C 63.808594 98.964844 62.988281 100.179688 62.417969 100.695312 C 62.242188 100.855469 61.960938 101.207031 61.800781 101.46875 C 61.449219 102.039062 59.664062 103.316406 58.199219 104.0625 C 56.117188 105.101562 53.054688 105.734375 50.902344 105.554688 C 48.3125 105.351562 45.394531 104.296875 43.375 102.832031 C 42.320312 102.054688 39.84375 99.460938 39.84375 99.125 C 39.84375 99.023438 39.652344 98.671875 39.417969 98.351562 C 38.9375 97.675781 38.40625 96.285156 37.882812 94.320312 C 37.574219 93.207031 37.5 92.5625 37.5 91.273438 C 37.5 89.75 37.542969 89.53125 38.160156 87.65625 C 38.921875 85.34375 39.710938 83.90625 41.117188 82.296875 C 43.039062 80.113281 44.925781 78.824219 47.386719 77.972656 C 49.601562 77.226562 49.585938 77.226562 51.855469 77.210938 C 53.820312 77.195312 54.039062 77.226562 54.757812 77.5625 Z M 76.976562 100.253906 C 77.195312 100.398438 77.664062 100.8125 78.015625 101.164062 C 78.589844 101.71875 78.648438 101.851562 78.574219 102.273438 C 78.429688 103.125 77.84375 103.507812 76.375 103.710938 C 73.257812 104.148438 70.109375 103.125 70.371094 101.75 C 70.472656 101.191406 71.292969 100.429688 72.128906 100.136719 C 73.039062 99.800781 76.40625 99.875 76.976562 100.253906 Z M 87.496094 111.136719 C 87.757812 111.269531 88.039062 111.476562 88.140625 111.605469 C 88.34375 111.882812 88.375 114.742188 88.226562 120.484375 L 88.140625 124.261719 L 87.699219 124.761719 C 87.144531 125.390625 86.734375 125.59375 85.546875 125.816406 C 85.019531 125.917969 84.109375 126.125 83.539062 126.285156 C 82.484375 126.578125 78.367188 127.148438 77.3125 127.148438 C 76.949219 127.148438 76.640625 127.03125 76.332031 126.765625 L 75.878906 126.386719 L 75.878906 119.839844 C 75.878906 112.339844 75.921875 111.914062 76.832031 111.53125 C 77.285156 111.359375 78.898438 111.136719 80.859375 110.992188 C 81.226562 110.960938 82.765625 110.933594 84.273438 110.917969 C 86.585938 110.890625 87.101562 110.933594 87.496094 111.136719 Z M 94.847656 111.035156 C 95.421875 111.109375 96.839844 111.242188 98.027344 111.328125 C 100.722656 111.53125 100.929688 111.59375 101.28125 112.207031 C 101.527344 112.617188 101.570312 113.042969 101.617188 115.371094 C 101.644531 117.304688 101.617188 118.183594 101.484375 118.492188 C 101.292969 118.929688 99.578125 120.554688 99.300781 120.554688 C 99.214844 120.554688 98.714844 120.820312 98.171875 121.140625 C 97.648438 121.464844 96.957031 121.800781 96.664062 121.875 C 96.371094 121.960938 95.875 122.195312 95.566406 122.417969 C 94.9375 122.84375 93.105469 123.601562 92.242188 123.78125 C 91.757812 123.867188 91.640625 123.835938 91.257812 123.484375 C 91.023438 123.265625 90.804688 122.929688 90.746094 122.738281 C 90.703125 122.546875 90.71875 119.984375 90.777344 117.070312 L 90.894531 111.738281 L 91.332031 111.386719 C 91.566406 111.195312 91.890625 111.019531 92.066406 110.992188 C 92.609375 110.875 93.808594 110.902344 94.847656 111.035156 Z M 72.699219 111.605469 C 73.359375 111.855469 73.390625 112.25 73.390625 119.515625 C 73.390625 127.148438 73.433594 126.855469 72.378906 127.148438 C 71.984375 127.25 71.367188 127.25 70.429688 127.148438 C 69.683594 127.074219 68.246094 126.945312 67.234375 126.855469 C 66.0625 126.765625 64.921875 126.578125 64.085938 126.328125 C 63.355469 126.125 62.359375 125.890625 61.84375 125.816406 C 60.335938 125.59375 59.734375 125.140625 59.472656 124.015625 C 59.339844 123.441406 59.546875 114.449219 59.707031 113.703125 C 59.898438 112.808594 60.5 112.515625 62.796875 112.207031 C 63.910156 112.0625 65.902344 111.855469 67.234375 111.765625 C 68.570312 111.679688 69.785156 111.578125 69.945312 111.5625 C 70.664062 111.460938 72.378906 111.488281 72.699219 111.605469 Z M 106.273438 111.914062 C 106.949219 112.0625 107.375 112.515625 107.375 113.042969 C 107.375 113.523438 105.921875 115.164062 105.21875 115.503906 C 104.707031 115.75 104.679688 115.75 104.5 115.503906 C 104.210938 115.109375 103.960938 113.714844 104.078125 113.128906 C 104.296875 111.914062 104.882812 111.59375 106.273438 111.914062 Z M 56.75 113.101562 C 57.203125 113.304688 57.597656 114.109375 57.613281 114.828125 C 57.613281 115.121094 57.570312 117.101562 57.507812 119.222656 C 57.390625 123.75 57.347656 123.925781 56.292969 123.925781 C 55.8125 123.925781 55.179688 123.691406 53.539062 122.886719 C 51.0625 121.640625 50.539062 121.257812 50.039062 120.21875 C 49.65625 119.457031 49.65625 119.429688 49.746094 117.054688 C 49.847656 114.695312 49.847656 114.667969 50.257812 114.257812 C 50.59375 113.9375 50.902344 113.820312 51.738281 113.6875 C 52.324219 113.585938 53.304688 113.394531 53.90625 113.246094 C 55.195312 112.925781 56.234375 112.867188 56.75 113.101562 Z M 46.65625 114.785156 C 46.949219 114.902344 47.152344 115.398438 47.3125 116.382812 C 47.503906 117.554688 46.917969 117.949219 45.90625 117.335938 C 45.484375 117.054688 44.824219 116.03125 44.824219 115.621094 C 44.824219 115.53125 44.957031 115.296875 45.132812 115.078125 C 45.4375 114.695312 46.085938 114.566406 46.65625 114.785156 Z M 46.65625 114.785156 "/>
<path style=" stroke:none;fill-rule:nonzero;fill:rgb(0%,0%,0%);fill-opacity:1;" d="M 95.816406 85.632812 C 93.824219 86.164062 93.339844 87.1875 94.539062 88.359375 C 95.171875 88.976562 95.359375 89.371094 95.359375 89.984375 C 95.359375 90.617188 95.070312 90.878906 94.058594 91.171875 C 93.078125 91.464844 92.578125 91.890625 92.578125 92.460938 C 92.578125 93.484375 93.574219 94.421875 95.1875 94.921875 C 96.476562 95.316406 97.207031 95.316406 98.378906 94.90625 C 99.171875 94.628906 99.550781 94.394531 100.179688 93.765625 C 101.101562 92.828125 101.441406 92.152344 101.660156 90.746094 C 101.9375 89.046875 101.585938 88.082031 100.210938 86.703125 C 98.980469 85.472656 97.632812 85.136719 95.816406 85.632812 Z M 95.816406 85.632812 "/>
<path style=" stroke:none;fill-rule:nonzero;fill:rgb(0%,0%,0%);fill-opacity:1;" d="M 50.609375 86.851562 C 49.585938 87.21875 49.25 87.453125 49.085938 87.921875 C 48.882812 88.492188 49.042969 88.914062 49.6875 89.589844 C 50.390625 90.320312 50.625 91.113281 50.304688 91.726562 C 50.140625 92.050781 49.878906 92.195312 49.070312 92.445312 C 48.238281 92.695312 48.003906 92.84375 47.8125 93.179688 C 47.402344 94 47.972656 95.039062 49.25 95.726562 C 49.890625 96.078125 50.214844 96.152344 51.402344 96.210938 C 53.363281 96.296875 53.847656 96.136719 55.078125 94.964844 C 55.941406 94.160156 56.148438 93.882812 56.335938 93.195312 C 56.644531 92.167969 56.644531 90.5 56.335938 89.488281 C 55.972656 88.199219 55.328125 87.582031 53.804688 87.039062 C 52.339844 86.515625 51.648438 86.46875 50.609375 86.851562 Z M 50.609375 86.851562 "/>
<path style=" stroke:none;fill-rule:nonzero;fill:rgb(0%,0%,0%);fill-opacity:1;" d="M 86.515625 149.546875 C 86.132812 149.707031 85.765625 149.867188 85.722656 149.914062 C 85.679688 149.96875 86.632812 150 87.832031 150 L 90 150 L 89.679688 149.679688 C 89.222656 149.210938 87.539062 149.148438 86.515625 149.546875 Z M 86.515625 149.546875 "/>
</g>
</svg>
